+------------------------------+
|Just Wright CAM XViD FEEL-FREE|
+------------------------------+

Genre:Comedy | Romance
Source:Just Wright 2010 DVDR[Just Wright 2010 Cam rip] Thanks
IMDB:http://www.imdb.com/title/tt1407061/
Language:English
Encoder: Tony2
...........................................
General
Complete name : Just Wright CAM XViD FEEL-FREE
Format : AVI
Format/Info : Audio Video Interleave
File size : 1.10 GiB
Duration : 1h 36mn
Overall bit rate : 1 642 Kbps
..........................................
Video
ID : 0
Format : MPEG-4 Visual
Format profile : Simple@L3
Format settings, BVOP : Yes
Format settings, QPel : No
Format settings, GMC : No warppoints
Format settings, Matrix : Default (H.263)
Codec ID : XVID
Codec ID/Hint : XviD
Duration : 1h 36mn
Bit rate : 1 500 Kbps
Width : 854 pixels
Height : 480 pixels
Display aspect ratio : 16:9
Frame rate : 29.970 fps
Resolution : 24 bits
Scan type : Progressive
Bits/(Pixel*Frame) : 0.122
Stream size : 1.01 GiB (91%)
...........................................
Audio
ID : 1
Format : MPEG Audio
Format version : Version 1
Format profile : Layer 3
Format settings, Mode : Joint stereo / MS Stereo
Codec ID : 55
Codec ID/Hint : MP3
Duration : 1h 36mn
Bit rate mode : Constant
Bit rate : 128 Kbps
Channel(s) : 2 channels
Sampling rate : 44.1 KHz
Resolution : 16 bits
Stream size : 88.2 MiB (8%)
Alignment : Aligned on interleaves
Interleave, duration : 26 ms (0.78 video frame)
Interleave, preload duration : 26 ms
Writing library : LAME3.97
..........................................
Plot:
A physical therapist falls for the basketball player she is helping recover from a career-threatening injury.
..........................................